<svg width="31" height="22" viewBox="0 0 31 22" fill="none" xmlns="http://www.w3.org/2000/svg">
<path d="M30.5777 9.94651L21.3537 0.43685C20.7887 -0.145617 19.8778 -0.145617 19.3128 0.43685C18.7479 1.01932 18.7479 1.9584 19.3128 2.54086L26.081 9.50669H1.44126C0.645683 9.50669 0 10.1724 0 10.9926C0 11.8128 0.645683 12.4785 1.44126 12.4785H26.081L19.3128 19.4562C18.7479 20.0386 18.7479 20.9777 19.3128 21.5602C19.5896 21.8455 19.9585 22 20.3275 22C20.6964 22 21.0654 21.8574 21.3421 21.5602L30.5662 12.0505C31.1427 11.4681 31.1427 10.5171 30.5777 9.94651Z" fill="white"/>
</svg>
