<svg width="100" height="77" viewBox="0 0 100 77" fill="none" xmlns="http://www.w3.org/2000/svg">
<g clip-path="url(#clip0)">
<path d="M100 0L85.7143 27.6161L95.8851 26.6583C95.5745 27.9354 95.264 29.2124 94.9534 30.4097C93.2453 36.4756 90.528 41.9829 87.1894 46.7718L85.8696 48.5277L84.4721 50.2039L83.0745 51.88C82.6087 52.4387 82.0652 52.9176 81.5994 53.4763C79.5807 55.4717 77.4068 57.3873 75.0776 58.9836C72.7484 60.5799 70.3416 62.0964 67.7795 63.2138C65.295 64.411 62.6553 65.3688 59.9379 66.0871C57.2205 66.8853 54.5031 67.2844 51.7081 67.5238C48.913 67.7633 46.118 67.7633 43.323 67.5238C40.528 67.2844 37.7329 66.7257 35.0155 66.0073C34.3168 65.8477 33.618 65.6082 32.9969 65.3688C32.2981 65.1293 31.677 64.8899 30.9783 64.6505L28.9596 63.8523L26.941 62.9743C21.6615 60.5001 16.6925 56.9882 12.3447 52.5983C10.0932 50.4433 8.07453 47.969 6.21118 45.3351C5.74534 44.6966 5.2795 43.9783 4.81366 43.3397L3.49379 41.2645C3.10559 40.5462 2.63975 39.8279 2.17391 39.1095C1.78571 38.3912 1.39752 37.593 0.931677 36.8747L0 37.2738C1.63043 43.8985 4.50311 50.2039 8.46273 55.7111C12.5 61.2184 17.5466 65.8477 23.2919 69.3596C29.0373 72.8714 35.4814 75.1861 42.0807 76.1439C48.6801 77.1017 55.5124 76.7026 62.0342 74.9466C68.4783 73.1907 74.6118 70.0779 79.9689 65.9275C85.3261 61.7771 89.7516 56.5093 93.1677 50.5231C96.5062 44.6168 98.7578 37.9921 99.6118 31.128C99.8447 29.5317 100 26.3391 100 26.3391V0Z" fill="url(#paint0_linear)"/>
<path d="M34.84 36.7778C30.6379 37.1534 27.532 40.9099 27.8974 45.2298C28.2628 49.5497 31.9168 52.7427 36.119 52.3671C40.3211 51.9914 43.4271 48.235 43.0616 43.915C42.6962 39.5951 39.0422 36.4021 34.84 36.7778ZM37.7633 47.3898C37.3979 47.8593 36.9411 48.141 36.2103 48.3289L36.3017 49.4558L35.3882 49.5497L35.2968 48.4228C34.1092 48.4228 33.2871 47.7654 32.9217 46.4506L34.2919 45.9811C34.4746 46.7324 34.9314 47.108 35.6622 47.108C36.0276 47.108 36.2103 47.0141 36.393 46.8263C36.5757 46.6385 36.5757 46.4506 36.5757 46.1689C36.5757 45.8872 36.4844 45.6993 36.3017 45.6054C36.119 45.5115 35.7536 45.3237 35.2055 45.2298C34.6573 45.1359 34.2919 44.9481 34.0179 44.7602C33.7438 44.5724 33.4698 44.3846 33.2871 44.1029C33.1044 43.8211 33.013 43.4455 32.9217 43.0698C32.9217 42.5064 33.013 42.0368 33.2871 41.5672C33.5611 41.0977 34.0179 40.816 34.6574 40.6281L34.566 39.7829L35.4795 39.689L35.5709 40.5342C36.5757 40.5342 37.3065 41.0977 37.6719 42.1307L36.4844 42.7881C36.2103 42.1307 35.7536 41.7551 35.2968 41.849C35.0228 41.849 34.8401 41.9429 34.7487 42.1307C34.566 42.3185 34.566 42.5064 34.566 42.6942C34.566 42.882 34.6573 43.0698 34.84 43.2577C35.0228 43.3516 35.2968 43.5394 35.8449 43.6333C36.393 43.8211 36.8498 43.915 37.1238 44.1029C37.3979 44.2907 37.6719 44.4785 37.946 44.7602C38.1287 45.042 38.3114 45.4176 38.3114 45.7933C38.22 46.4506 38.1287 46.9202 37.7633 47.3898Z" fill="#4891FF"/>
<path d="M82.7995 3.16407C80.6984 -0.122835 76.4049 -0.96804 73.2077 1.19193C70.0104 3.3519 69.1882 7.76575 71.2893 11.0527C73.3904 14.3396 77.6838 15.1848 80.8811 13.0248C84.0784 10.8648 84.9005 6.45098 82.7995 3.16407ZM75.8568 10.2075C75.3087 10.1135 74.852 9.83181 74.4866 9.36225L73.6644 9.92572L73.2077 9.26834L74.0298 8.70487C73.5731 7.76575 73.6644 6.82663 74.4866 5.98143L75.4914 6.92054C74.9433 7.3901 74.852 7.95357 75.2174 8.51704C75.4001 8.79878 75.5828 8.89269 75.7655 8.9866C75.9482 9.08051 76.1309 8.9866 76.3136 8.89269C76.4963 8.79878 76.5876 8.61095 76.5876 8.42313C76.5876 8.23531 76.5876 7.85966 76.4049 7.3901C76.3136 6.92054 76.2222 6.5449 76.2222 6.26316C76.2222 5.98143 76.3136 5.69969 76.4049 5.41796C76.5876 5.13622 76.7703 4.85449 77.0444 4.66666C77.4098 4.38493 77.8665 4.29102 78.3233 4.29102C78.78 4.29102 79.2368 4.57275 79.6022 5.04231L80.2417 4.57275L80.6984 5.23013L80.0589 5.69969C80.5157 6.5449 80.333 7.3901 79.7849 8.14139L78.78 7.48401C79.1454 6.92054 79.2368 6.45098 79.0541 6.07534C78.9627 5.88751 78.78 5.7936 78.5973 5.69969C78.4146 5.69969 78.2319 5.69969 78.0492 5.7936C77.8665 5.88751 77.7752 6.07534 77.7752 6.26316C77.7752 6.45098 77.7752 6.73272 77.9579 7.20228C78.0492 7.76575 78.1406 8.1414 78.1406 8.42313C78.1406 8.70487 78.1406 9.08051 77.9579 9.36225C77.7752 9.64398 77.5925 9.92572 77.3184 10.1135C76.8617 10.1135 76.3136 10.3014 75.8568 10.2075Z" fill="#4891FF"/>
<path d="M66.9954 41.0224C63.7068 40.5529 60.6008 42.9006 60.1441 46.2814C59.6873 49.6622 61.9711 52.8552 65.2597 53.3247C68.5484 53.7943 71.6543 51.4465 72.1111 48.0657C72.5678 44.6849 70.2841 41.492 66.9954 41.0224ZM67.4522 49.7561C67.0868 50.0378 66.63 50.2257 66.0819 50.1317L65.9905 50.9769L65.2597 50.883L65.3511 50.0378C64.4376 49.7561 63.9808 49.1926 63.8895 48.1596L64.9857 48.0657C64.9857 48.7231 65.2597 49.0987 65.8992 49.1926C66.1732 49.1926 66.356 49.1926 66.5387 49.0987C66.7214 49.0048 66.8127 48.817 66.8127 48.6292C66.8127 48.4414 66.8127 48.2535 66.7214 48.1596C66.63 48.0657 66.3559 47.8779 65.8992 47.5962C65.5338 47.4083 65.2597 47.2205 65.077 47.0327C64.8943 46.8449 64.7116 46.6571 64.6203 46.3753C64.4376 46.0936 64.4376 45.8119 64.4376 45.5301C64.5289 45.0606 64.7116 44.7788 64.9857 44.4032C65.2597 44.1215 65.7165 43.9336 66.2646 43.9336L66.3559 43.2763L67.0868 43.3702L66.9954 44.0276C67.8176 44.2154 68.183 44.7788 68.3657 45.624L67.3608 45.9058C67.2695 45.3423 66.9954 44.9667 66.63 44.9667C66.4473 44.9667 66.2646 44.9667 66.0819 45.0606C65.8992 45.1545 65.8992 45.3423 65.8078 45.5301C65.8078 45.7179 65.8078 45.9058 65.8992 45.9997C65.9905 46.0936 66.2646 46.2814 66.63 46.4692C66.9954 46.6571 67.3608 46.8449 67.5435 47.0327C67.7262 47.2205 67.9089 47.4083 68.0003 47.6901C68.0916 47.9718 68.0916 48.2535 68.0916 48.6292C68.0003 49.0987 67.7262 49.4744 67.4522 49.7561Z" fill="#4891FF"/>
<path d="M22.5072 16.5935C19.9494 14.9031 16.4781 15.5604 14.8338 18.2838C13.1895 20.9134 13.8289 24.482 16.4781 26.1724C19.0359 27.8628 22.5073 27.2054 24.1516 24.482C25.7959 21.7585 25.0651 18.2839 22.5072 16.5935ZM19.4927 24.1063C19.1273 24.2002 18.6705 24.1063 18.2138 23.9185L17.8483 24.5759L17.3002 24.2002L17.757 23.5429C17.1175 22.9794 16.9348 22.2281 17.2089 21.3829L18.2138 21.7586C17.9397 22.322 18.1224 22.6977 18.4878 23.0733C18.6705 23.1672 18.8532 23.2611 19.0359 23.2611C19.2186 23.2611 19.31 23.1672 19.4013 22.9794C19.4927 22.7916 19.4927 22.6977 19.4927 22.5098C19.4013 22.322 19.31 22.1342 19.0359 21.7586C18.7619 21.4768 18.6705 21.1951 18.4878 20.9134C18.3965 20.7255 18.3051 20.4438 18.3965 20.1621C18.3965 19.8803 18.4878 19.5986 18.6705 19.4108C18.8532 19.0351 19.1273 18.8473 19.4927 18.7534C19.8581 18.6595 20.2235 18.6595 20.6802 18.8473L21.0456 18.2838L21.5937 18.6595L21.2283 19.223C21.7764 19.6925 21.9591 20.3499 21.7764 21.1012L20.7716 20.9134C20.8629 20.3499 20.7716 19.9742 20.4975 19.7864C20.3148 19.6925 20.2235 19.6925 20.0408 19.6925C19.8581 19.6925 19.7667 19.7864 19.6754 19.9742C19.584 20.1621 19.584 20.256 19.584 20.3499C19.584 20.4438 19.7667 20.7255 19.9494 21.0073C20.2235 21.3829 20.4062 21.6646 20.4975 21.8525C20.5889 22.1342 20.6802 22.322 20.6802 22.6037C20.6802 22.8855 20.5889 23.1672 20.4062 23.355C20.2235 23.7307 19.9494 23.9185 19.4927 24.1063Z" fill="#4891FF"/>
<path d="M50.1864 14.7152C46.6237 16.1239 44.7967 20.256 46.1669 23.9185C47.5372 27.5811 51.5567 29.4593 55.1194 28.0506C58.6821 26.642 60.5091 22.5099 59.1388 18.8473C57.7685 15.1848 53.7491 13.3066 50.1864 14.7152ZM55.3934 23.2611C55.2107 23.7307 54.8453 24.1063 54.2972 24.482L54.6626 25.4211L53.9318 25.7028L53.5664 24.7637C52.5615 25.0455 51.648 24.6698 51.0086 23.7307L52.1048 22.9794C52.4702 23.6368 52.9269 23.8246 53.5664 23.5429C53.8404 23.449 54.0231 23.2611 54.1145 23.0733C54.2058 22.8855 54.2058 22.6977 54.1145 22.4159C54.0231 22.2281 53.9318 22.0403 53.7491 22.0403C53.5664 21.9464 53.201 21.9464 52.6529 21.9464C52.1961 21.9464 51.8307 21.9464 51.4653 21.8525C51.1913 21.7586 50.9172 21.6647 50.6431 21.4768C50.3691 21.289 50.1864 21.0073 50.095 20.6316C49.9123 20.1621 49.9123 19.6925 50.0037 19.223C50.095 18.7534 50.4604 18.3778 51.0086 18.096L50.7345 17.3447L51.4653 17.063L51.7394 17.8143C52.6529 17.6265 53.3837 17.8143 53.9318 18.6595L53.0183 19.5047C52.5615 18.9412 52.1961 18.7534 51.7394 18.9412C51.5567 19.0351 51.374 19.1291 51.2826 19.3169C51.1913 19.5047 51.1913 19.6925 51.2826 19.8803C51.374 20.0682 51.4653 20.1621 51.648 20.256C51.8307 20.3499 52.1048 20.3499 52.5615 20.3499C53.1096 20.3499 53.475 20.3499 53.8404 20.4438C54.1145 20.5377 54.4799 20.6316 54.6626 20.8195C54.9367 21.0073 55.1194 21.289 55.2107 21.6647C55.5761 22.2281 55.5761 22.6977 55.3934 23.2611Z" fill="#4891FF"/>
</g>
<defs>
<linearGradient id="paint0_linear" x1="0" y1="0" x2="112.991" y2="39.3333" gradientUnits="userSpaceOnUse">
<stop stop-color="#5A8EBE"/>
<stop offset="1" stop-color="#4E72FF"/>
</linearGradient>
<clipPath id="clip0">
<rect width="100" height="77" fill="white"/>
</clipPath>
</defs>
</svg>
