<svg width="100" height="77" viewBox="0 0 100 77" fill="none" xmlns="http://www.w3.org/2000/svg">
<path d="M75.3112 34.9464C79.1932 33.6698 81.9882 29.9198 81.9882 25.4518C81.9882 19.9466 77.6404 15.4786 72.2833 15.4786C66.9261 15.4786 62.5783 19.9466 62.5783 25.4518C62.5783 29.9198 65.3733 33.6698 69.2553 34.9464C62.6559 36.3825 57.7646 42.4462 57.7646 49.5472V69.2543L86.8796 57.0471V49.5472C86.8796 42.4462 81.9106 36.3825 75.3112 34.9464Z" fill="#9FC2EB" fill-opacity="0.72"/>
<path d="M28.5719 33.8294C32.221 32.6326 34.8608 29.0422 34.8608 24.8933C34.8608 19.7072 30.7459 15.4786 25.6993 15.4786C20.6527 15.4786 16.5378 19.7072 16.5378 24.8933C16.5378 29.0422 19.1775 32.5528 22.8266 33.8294C16.6931 35.1857 11.957 40.8506 11.957 47.5526V55.7706L39.3639 69.6533V47.5526C39.3639 40.8506 34.7055 35.1857 28.5719 33.8294Z" fill="#9FC2EB" fill-opacity="0.72"/>
<path d="M52.1745 41.9675C56.2894 40.6111 59.2398 36.6218 59.2398 31.9942C59.2398 26.1698 54.659 21.4624 48.9913 21.4624C43.3236 21.4624 38.7429 26.1698 38.7429 31.9942C38.7429 36.6218 41.6932 40.6111 45.8081 41.9675C38.8982 43.4834 33.6963 49.8663 33.6963 57.3662V67.898H64.364V57.3662C64.2863 49.8663 59.0845 43.4834 52.1745 41.9675Z" fill="#D2DDEC"/>
<path d="M100 0L85.7143 27.606L95.8851 26.6486C95.5745 27.9251 95.264 29.2017 94.9534 30.3985C93.2453 36.4622 90.528 41.9675 87.1894 46.7546L85.8696 48.5099L84.4721 50.1854L83.0745 51.861C82.6087 52.4195 82.0652 52.8982 81.5994 53.4567C79.5807 55.4513 77.4068 57.3662 75.0776 58.9619C72.7484 60.5576 70.3416 62.0736 67.7795 63.1906C65.295 64.3874 62.6553 65.3448 59.9379 66.0629C57.2205 66.8607 54.5031 67.2597 51.7081 67.499C48.913 67.7384 46.118 67.7384 43.323 67.499C40.528 67.2597 37.7329 66.7012 35.0155 65.9831C34.3168 65.8235 33.618 65.5842 32.9969 65.3448C32.2981 65.1054 31.677 64.8661 30.9783 64.6267L28.9596 63.8289L26.941 62.9512C21.6615 60.4779 16.6925 56.9673 12.3447 52.579C10.0932 50.4248 8.07453 47.9514 6.21118 45.3185C5.74534 44.6802 5.2795 43.9621 4.81366 43.3238L3.49379 41.2494C3.10559 40.5313 2.63975 39.8133 2.17391 39.0952C1.78571 38.3771 1.39752 37.5792 0.931677 36.8612L0 37.2601C1.63043 43.8823 4.50311 50.1855 8.46273 55.6907C12.5 61.1959 17.5466 65.8235 23.2919 69.3341C29.0373 72.8447 35.4814 75.1585 42.0807 76.1159C48.6801 77.0734 55.5124 76.6744 62.0342 74.9191C68.4783 73.1638 74.6118 70.0522 79.9689 65.9033C85.3261 61.7544 89.7516 56.4885 93.1677 50.5046C96.5062 44.6004 98.7578 37.9782 99.6118 31.1166C99.8447 29.5209 100 26.3294 100 26.3294V0Z" fill="url(#paint0_linear)"/>
<defs>
<linearGradient id="paint0_linear" x1="0" y1="0" x2="112.982" y2="39.3446" gradientUnits="userSpaceOnUse">
<stop stop-color="#5A8EBE"/>
<stop offset="1" stop-color="#4E72FF"/>
</linearGradient>
</defs>
</svg>
