<svg width="79" height="71" viewBox="0 0 79 71" fill="none" xmlns="http://www.w3.org/2000/svg">
<path d="M46.9283 18.1543H32.0414V70.998H46.9283V18.1543Z" fill="url(#paint0_linear)" fill-opacity="0.3"/>
<path d="M32.0414 18.1543V70.998H0V18.1543H32.0414ZM46.8298 18.1543V70.998H78.8712V18.1543H46.8298Z" fill="url(#paint1_linear)"/>
<path d="M39.4356 17.76C39.4356 17.76 29.0837 18.7459 23.4642 16.2812C17.8446 13.8165 12.718 7.11241 15.0841 3.76038C17.4502 0.408356 25.2388 -0.380355 31.7456 4.15474C38.2525 8.68983 39.4356 17.76 39.4356 17.76Z" fill="url(#paint2_linear)"/>
<path d="M39.4356 17.76C39.4356 17.76 49.7874 18.7459 55.407 16.2812C61.0266 13.8165 66.0546 7.11241 63.787 3.76038C61.5195 0.408356 53.731 -0.380355 47.1255 4.15474C40.5201 8.68983 39.4356 17.76 39.4356 17.76Z" fill="url(#paint3_linear)"/>
<defs>
<linearGradient id="paint0_linear" x1="32.0414" y1="18.1543" x2="50.7947" y2="19.564" gradientUnits="userSpaceOnUse">
<stop stop-color="#4E9DFF"/>
<stop offset="1" stop-color="#3F96FF" stop-opacity="0.7"/>
</linearGradient>
<linearGradient id="paint1_linear" x1="0" y1="18.1543" x2="86.2384" y2="52.4991" gradientUnits="userSpaceOnUse">
<stop stop-color="#3490FF"/>
<stop offset="1" stop-color="#499BFF"/>
</linearGradient>
<linearGradient id="paint2_linear" x1="40.2201" y1="10.6589" x2="14.0147" y2="14.3554" gradientUnits="userSpaceOnUse">
<stop stop-color="#328FFF"/>
<stop offset="1" stop-color="#489AFF"/>
</linearGradient>
<linearGradient id="paint3_linear" x1="65.1273" y1="10.6589" x2="38.957" y2="14.3454" gradientUnits="userSpaceOnUse">
<stop stop-color="#3490FF"/>
<stop offset="1" stop-color="#499BFF"/>
</linearGradient>
</defs>
</svg>
