<svg width="92" height="75" viewBox="0 0 92 75" fill="none" xmlns="http://www.w3.org/2000/svg">
<path d="M45.6082 75L6.58788 59.3919V20.3716L45.6082 35.9797V75Z" fill="url(#paint0_linear)"/>
<path d="M85.4392 60.2029L45.6081 75.0002V35.9799L85.4392 21.2839V60.2029Z" fill="url(#paint1_linear)"/>
<path d="M44.6959 25.5405C51.7488 25.5405 57.4662 19.8231 57.4662 12.7703C57.4662 5.71744 51.7488 0 44.6959 0C37.6431 0 31.9257 5.71744 31.9257 12.7703C31.9257 19.8231 37.6431 25.5405 44.6959 25.5405Z" fill="url(#paint2_linear)"/>
<path d="M80.777 21.0811C80.777 11.5541 72.9729 3.75 63.4459 3.75C56.554 3.75 50.6757 7.7027 47.8378 13.4797C48.9527 15.9122 49.5608 18.6486 49.5608 21.5878C49.5608 23.6149 49.2567 25.5405 48.75 27.2635C51.1824 28.3784 53.2094 30.3041 54.4257 32.7365L80.5743 23.3108C80.6757 22.6013 80.777 21.8919 80.777 21.0811Z" fill="url(#paint3_linear)"/>
<path d="M47.027 26.6554C47.6352 26.8581 48.2433 27.0608 48.75 27.2635C49.2568 25.4392 49.5608 23.5135 49.5608 21.5878C49.5608 18.6487 48.9527 15.9122 47.8379 13.4797C46.723 15.8108 46.1149 18.3446 46.1149 21.0811C46.1149 23.0068 46.4189 24.9324 47.027 26.6554Z" fill="url(#paint4_linear)"/>
<path fill-rule="evenodd" clip-rule="evenodd" d="M47.027 26.6556C46.0135 26.3515 44.8987 26.1488 43.7838 26.1488C39.7297 26.1488 36.1824 28.2772 34.0541 31.4191L9.93243 21.7907V21.588C9.93243 10.6421 18.8514 1.72314 29.7973 1.72314C37.9054 1.72314 44.7973 6.58801 47.8378 13.4799C47.8379 13.4799 47.8379 13.4798 47.8379 13.4798C48.9528 15.9122 49.5609 18.6487 49.5609 21.5879C49.5609 23.5136 49.2568 25.4393 48.7501 27.2636C48.2433 27.0609 47.6352 26.8582 47.0271 26.6555C46.419 24.9325 46.1149 23.0068 46.1149 21.0811C46.1149 19.4415 46.3332 17.8746 46.7481 16.3805C46.3332 17.8747 46.1149 19.4416 46.1149 21.0813C46.1149 23.0069 46.4189 24.9326 47.027 26.6556Z" fill="url(#paint5_linear)"/>
<path d="M43.9999 26C39.826 26 36.1498 28.131 33.9999 31.3644L45.4999 36L54.7898 32.7422C52.8408 28.7501 48.7416 26 43.9999 26Z" fill="url(#paint6_linear)"/>
<path d="M68.7162 16.0136C68.3108 15.6082 67.7027 15.6082 67.2973 16.0136L64.5608 18.6488C64.1554 19.0542 63.5473 19.0542 63.1419 18.6488L60.304 15.7096C59.8986 15.3042 59.2905 15.3042 58.8851 15.7096C58.4797 16.115 58.4797 16.7231 58.8851 17.1285L61.7229 20.0677C62.1284 20.4731 62.1284 21.0812 61.7229 21.4866L58.7838 24.3244C58.3784 24.7298 58.3784 25.3379 58.7838 25.7434C59.1892 26.1488 59.7973 26.1488 60.2027 25.7434L63.1419 22.9055C63.5473 22.5001 64.1554 22.5001 64.5608 22.9055L67.1959 25.642C67.6013 26.0474 68.2094 26.0474 68.6148 25.642C69.0202 25.2366 69.0202 24.6285 68.6148 24.2231L65.9797 21.4866C65.5743 21.0812 65.5743 20.4731 65.9797 20.0677L68.7162 17.4325C69.1216 17.0271 69.1216 16.419 68.7162 16.0136Z" fill="white"/>
<path d="M37.5 23.2095L33.0405 21.0811C32.3311 20.7771 32.1284 19.9663 32.4324 19.2568L34.5608 14.8987C34.8648 14.1892 34.5608 13.4798 33.9527 13.0744C33.2432 12.7703 32.5338 13.0744 32.1284 13.6825L30 18.0406C29.6959 18.75 28.8851 18.9527 28.1757 18.6487L23.7162 16.5203C23.0067 16.2163 22.2973 16.5203 21.8919 17.1284C21.5878 17.8379 21.8919 18.5473 22.5 18.9527L26.9594 21.0811C27.6689 21.3852 27.8716 22.196 27.5676 22.9054L25.3378 27.4662C25.0338 28.1757 25.3378 28.8852 25.9459 29.2906C26.6554 29.5946 27.3649 29.2906 27.7703 28.6825L30 24.1217C30.304 23.4122 31.1149 23.2095 31.8243 23.5135L36.2838 25.6419C36.9932 25.946 37.7027 25.6419 38.1081 25.0338C38.4121 24.3244 38.1081 23.5135 37.5 23.2095Z" fill="white"/>
<path d="M6.58784 20.3716L0 27.7702L37.8041 43.9865L45.6081 35.9797L6.58784 20.3716Z" fill="url(#paint7_linear)"/>
<path d="M45.6081 35.9799L52.5 43.9866L91.5203 28.9866L85.4392 21.2839L45.6081 35.9799Z" fill="url(#paint8_linear)"/>
<defs>
<linearGradient id="paint0_linear" x1="6.58788" y1="20.3716" x2="54.2872" y2="29.4628" gradientUnits="userSpaceOnUse">
<stop stop-color="#3390FF"/>
<stop offset="1" stop-color="#489AFF"/>
</linearGradient>
<linearGradient id="paint1_linear" x1="45.6081" y1="21.2839" x2="94.1664" y2="30.8915" gradientUnits="userSpaceOnUse">
<stop stop-color="#3390FF"/>
<stop offset="1" stop-color="#479AFF"/>
</linearGradient>
<linearGradient id="paint2_linear" x1="35.8462" y1="3.6666" x2="53.6531" y2="21.8888" gradientUnits="userSpaceOnUse">
<stop stop-color="#318EFF"/>
<stop offset="1" stop-color="#4B9CFF"/>
</linearGradient>
<linearGradient id="paint3_linear" x1="52.2688" y1="7.8376" x2="76.4328" y2="32.5652" gradientUnits="userSpaceOnUse">
<stop stop-color="#3490FF"/>
<stop offset="1" stop-color="#479AFF"/>
</linearGradient>
<linearGradient id="paint4_linear" x1="43.7054" y1="16.2058" x2="67.8695" y2="40.9335" gradientUnits="userSpaceOnUse">
<stop stop-color="#FF9BB3"/>
<stop offset="1" stop-color="#EA1260"/>
</linearGradient>
<linearGradient id="paint5_linear" x1="15.8592" y1="4.71945" x2="51.6272" y2="22.0767" gradientUnits="userSpaceOnUse">
<stop stop-color="#3390FF"/>
<stop offset="1" stop-color="#479AFF"/>
</linearGradient>
<linearGradient id="paint6_linear" x1="36.3975" y1="28.0884" x2="51.3155" y2="39.8793" gradientUnits="userSpaceOnUse">
<stop stop-color="#328FFF"/>
<stop offset="1" stop-color="#4B9CFF"/>
</linearGradient>
<linearGradient id="paint7_linear" x1="0" y1="20.3716" x2="45.6534" y2="43.8985" gradientUnits="userSpaceOnUse">
<stop stop-color="#328FFF"/>
<stop offset="0.0001" stop-color="#BFD6FF"/>
<stop offset="1" stop-color="#C0D6FF" stop-opacity="0.6"/>
</linearGradient>
<linearGradient id="paint8_linear" x1="45.6081" y1="21.2839" x2="90.6542" y2="45.5916" gradientUnits="userSpaceOnUse">
<stop stop-color="#C545DB"/>
<stop offset="0.0001" stop-color="#BFD6FF"/>
<stop offset="1" stop-color="#C0D6FF" stop-opacity="0.6"/>
</linearGradient>
</defs>
</svg>
