<svg width="158" height="28" viewBox="0 0 158 28" fill="none" xmlns="http://www.w3.org/2000/svg">
<g clip-path="url(#clip0)">
<path fill-rule="evenodd" clip-rule="evenodd" d="M50.3991 9.52481C49.8959 9.52481 49.4743 9.37725 49.1342 9.08211C48.8077 8.77415 48.6444 8.3956 48.6444 7.94649C48.6444 7.49738 48.8077 7.12525 49.1342 6.83011C49.4743 6.52215 49.8959 6.36816 50.3991 6.36816C50.9023 6.36816 51.3173 6.52215 51.6437 6.83011C51.9837 7.12525 52.1537 7.49738 52.1537 7.94649C52.1537 8.3956 51.9837 8.77415 51.6437 9.08211C51.3173 9.37725 50.9023 9.52481 50.3991 9.52481ZM51.0068 10.7952C51.4487 10.7952 51.8068 11.1534 51.8068 11.5952V20.6585C51.8068 21.1003 51.4487 21.4585 51.0068 21.4585H49.7506C49.3088 21.4585 48.9506 21.1003 48.9506 20.6585V11.5952C48.9506 11.1534 49.3088 10.7952 49.7506 10.7952H51.0068ZM41.4348 21.5933C40.4419 21.5933 39.5443 21.4329 38.7417 21.1121C37.9528 20.7913 37.3272 20.3293 36.8647 19.7262C36.5608 19.33 36.3539 18.8867 36.2438 18.3962C36.1459 17.9601 36.517 17.5897 36.9639 17.5897H38.4681C38.887 17.5897 39.2122 17.9264 39.3843 18.3082C39.4869 18.5359 39.6332 18.7327 39.823 18.8986C40.2039 19.2194 40.7208 19.3798 41.3736 19.3798C42.0402 19.3798 42.5639 19.2322 42.9447 18.9371C43.3256 18.6291 43.5159 18.2313 43.5159 17.7437C43.5159 17.3459 43.3867 17.0187 43.1283 16.7621C42.8698 16.5054 42.5434 16.3065 42.1489 16.1654C41.768 16.0114 41.2376 15.8446 40.5575 15.665C39.6327 15.4083 38.8778 15.1581 38.2929 14.9143C37.7215 14.6576 37.2253 14.2791 36.8035 13.7787C36.3954 13.2654 36.1914 12.5853 36.1914 11.7384C36.1914 10.9428 36.4022 10.2499 36.824 9.65961C37.2455 9.06934 37.8372 8.62021 38.5989 8.31225C39.3606 7.99145 40.2311 7.83105 41.2103 7.83105C42.6795 7.83105 43.8695 8.1711 44.7808 8.8512C45.4753 9.3522 45.9359 10.0051 46.1625 10.81C46.289 11.2591 45.912 11.6614 45.4453 11.6614H43.9233C43.4997 11.6614 43.1724 11.3066 42.9424 10.9509C42.8408 10.7939 42.7056 10.6522 42.5366 10.5258C42.1558 10.2178 41.6456 10.0638 41.0063 10.0638C40.4487 10.0638 39.9999 10.1986 39.6599 10.468C39.3333 10.7375 39.1702 11.1289 39.1702 11.6421C39.1702 12.0014 39.2926 12.303 39.5374 12.5468C39.7958 12.7778 40.1087 12.9702 40.4759 13.1242C40.8567 13.2654 41.3872 13.4322 42.0674 13.6247C42.9922 13.8813 43.7471 14.138 44.332 14.3946C44.9169 14.6512 45.4201 15.0362 45.8417 15.5495C46.2635 16.0627 46.4742 16.7364 46.4742 17.5705C46.4742 18.2891 46.277 18.9563 45.8826 19.5723C45.4881 20.1882 44.9101 20.6822 44.1484 21.0543C43.3867 21.4136 42.4822 21.5933 41.4348 21.5933ZM73.0369 16.2688C73.0429 16.1488 73.046 16.0245 73.046 15.896C73.046 14.8566 72.808 13.9391 72.332 13.1435C71.8695 12.3351 71.2097 11.7128 70.3528 11.2765C69.5097 10.8402 68.5507 10.6221 67.4761 10.6221C66.3608 10.6221 65.3748 10.8466 64.5178 11.2957C63.6609 11.7449 62.9944 12.3865 62.5184 13.2205C62.0424 14.0546 61.8044 15.0234 61.8044 16.127C61.8044 17.2177 62.0424 18.1801 62.5184 19.0141C63.0081 19.8482 63.6814 20.4962 64.5382 20.9582C65.4088 21.4073 66.388 21.6319 67.4761 21.6319C68.8227 21.6319 69.9585 21.3046 70.8833 20.6502C71.4896 20.2129 71.9672 19.6984 72.3163 19.1067C72.5914 18.6404 72.2078 18.1095 71.6665 18.1095H70.1644C69.8664 18.1095 69.6021 18.2827 69.4188 18.5176C68.96 19.1053 68.2921 19.3991 67.4149 19.3991C66.6805 19.3991 66.0616 19.181 65.5584 18.7447C65.0552 18.3084 64.7695 17.7053 64.7015 16.9354H72.2933C72.6814 16.9354 73.0173 16.6564 73.0369 16.2688ZM69.292 13.4707C69.8089 13.8814 70.0741 14.4331 70.0876 15.1261H64.7218C64.8307 14.4075 65.1231 13.8493 65.5991 13.4515C66.0888 13.0409 66.6872 12.8356 67.3945 12.8356C68.1427 12.8356 68.775 13.0473 69.292 13.4707ZM74.3963 16.127C74.3963 15.0234 74.6343 14.061 75.1105 13.2398C75.5865 12.4057 76.2461 11.7641 77.0894 11.315C77.9328 10.853 78.8985 10.6221 79.9866 10.6221C81.3876 10.6221 82.5436 10.9557 83.4549 11.623C84.1106 12.0868 84.6124 12.686 84.9605 13.4206C85.185 13.8944 84.7991 14.3946 84.2749 14.3946H82.7966C82.4576 14.3946 82.1688 14.1708 81.9795 13.8896C81.826 13.6617 81.631 13.4708 81.3943 13.3168C81.0135 13.0473 80.5375 12.9126 79.9661 12.9126C79.15 12.9126 78.5039 13.1949 78.0279 13.7595C77.5519 14.3112 77.3139 15.1004 77.3139 16.127C77.3139 17.1407 77.5519 17.9298 78.0279 18.4944C78.5039 19.0462 79.15 19.3221 79.9661 19.3221C80.9026 19.3221 81.5758 19.0022 81.9858 18.3624C82.1674 18.079 82.4551 17.8593 82.7917 17.8593H84.2661C84.793 17.8593 85.1784 18.3643 84.9461 18.8373C84.5987 19.5448 84.1016 20.1363 83.4549 20.6117C82.5301 21.2918 81.3739 21.6319 79.9866 21.6319C78.8985 21.6319 77.9328 21.4073 77.0894 20.9582C76.2461 20.4962 75.5865 19.8546 75.1105 19.0334C74.6343 18.1993 74.3963 17.2305 74.3963 16.127ZM96.0548 11.1802C95.3883 10.8209 94.6266 10.6413 93.7697 10.6413C93.0216 10.6413 92.3415 10.776 91.7294 11.0455C91.1173 11.3021 90.6278 11.6614 90.2605 12.1234V8.01515C90.2605 7.57332 89.9023 7.21515 89.4605 7.21515H88.2042C87.7624 7.21515 87.4042 7.57332 87.4042 8.01515V20.6586C87.4042 21.1004 87.7624 21.4586 88.2042 21.4586H89.4605C89.9023 21.4586 90.2605 21.1004 90.2605 20.6586V15.5687C90.2605 14.7218 90.485 14.0738 90.9338 13.6247C91.3962 13.1627 92.0219 12.9318 92.8108 12.9318C93.586 12.9318 94.1981 13.1627 94.6471 13.6247C95.0959 14.0738 95.3203 14.7218 95.3203 15.5687V20.6586C95.3203 21.1004 95.6785 21.4586 96.1203 21.4586H97.3766C97.8184 21.4586 98.1766 21.1004 98.1766 20.6586V15.203C98.1766 14.2406 97.9861 13.4194 97.6052 12.7393C97.2381 12.0464 96.7212 11.5267 96.0548 11.1802ZM111.4 15.896C111.4 16.0245 111.397 16.1488 111.391 16.2688C111.371 16.6564 111.035 16.9354 110.647 16.9354H103.056C103.123 17.7053 103.409 18.3084 103.912 18.7447C104.416 19.181 105.034 19.3991 105.769 19.3991C106.646 19.3991 107.314 19.1053 107.773 18.5176C107.956 18.2827 108.22 18.1095 108.518 18.1095H110.02C110.562 18.1095 110.945 18.6404 110.67 19.1067C110.321 19.6984 109.844 20.2129 109.237 20.6502C108.312 21.3046 107.177 21.6319 105.83 21.6319C104.742 21.6319 103.763 21.4073 102.892 20.9582C102.035 20.4962 101.362 19.8482 100.872 19.0141C100.396 18.1801 100.158 17.2177 100.158 16.127C100.158 15.0234 100.396 14.0546 100.872 13.2205C101.348 12.3865 102.015 11.7449 102.872 11.2957C103.729 10.8466 104.715 10.6221 105.83 10.6221C106.905 10.6221 107.864 10.8402 108.707 11.2765C109.564 11.7128 110.223 12.3351 110.686 13.1435C111.162 13.9391 111.4 14.8566 111.4 15.896ZM108.442 15.1261C108.428 14.4331 108.163 13.8814 107.646 13.4707C107.129 13.0473 106.497 12.8356 105.748 12.8356C105.041 12.8356 104.443 13.0409 103.953 13.4515C103.477 13.8493 103.185 14.4075 103.076 15.1261H108.442ZM113.464 13.2398C112.988 14.061 112.75 15.0234 112.75 16.127C112.75 17.2305 112.988 18.1993 113.464 19.0334C113.94 19.8546 114.6 20.4962 115.443 20.9582C116.287 21.4073 117.252 21.6319 118.341 21.6319C119.728 21.6319 120.884 21.2918 121.809 20.6117C122.456 20.1363 122.953 19.5448 123.3 18.8373C123.532 18.3643 123.147 17.8593 122.62 17.8593H121.146C120.809 17.8593 120.521 18.0791 120.34 18.3625C119.93 19.0023 119.257 19.3221 118.32 19.3221C117.504 19.3221 116.858 19.0462 116.382 18.4944C115.906 17.9298 115.668 17.1407 115.668 16.127C115.668 15.1004 115.906 14.3112 116.382 13.7595C116.858 13.1949 117.504 12.9126 118.32 12.9126C118.891 12.9126 119.368 13.0473 119.748 13.3168C119.985 13.4708 120.18 13.6617 120.334 13.8895C120.523 14.1708 120.812 14.3946 121.151 14.3946H122.629C123.153 14.3946 123.539 13.8944 123.314 13.4206C122.966 12.686 122.465 12.0868 121.809 11.623C120.898 10.9557 119.742 10.6221 118.341 10.6221C117.252 10.6221 116.287 10.853 115.443 11.315C114.6 11.7641 113.94 12.4057 113.464 13.2398ZM132.822 21.4586C132.586 21.4586 132.362 21.3547 132.21 21.1747L128.614 16.9161V20.6586C128.614 21.1004 128.256 21.4586 127.814 21.4586H126.558C126.116 21.4586 125.758 21.1004 125.758 20.6586V8.01515C125.758 7.57332 126.116 7.21515 126.558 7.21515H127.814C128.256 7.21515 128.614 7.57332 128.614 8.01515V15.3185L132.169 11.0811C132.322 10.8999 132.546 10.7953 132.782 10.7953H134.285C134.984 10.7953 135.347 11.6285 134.871 12.1402L131.144 16.1462L134.888 20.1092C135.37 20.6193 135.009 21.4586 134.307 21.4586H132.822ZM148.171 16.2688C148.177 16.1488 148.18 16.0245 148.18 15.896C148.18 14.8566 147.942 13.9391 147.466 13.1435C147.003 12.3351 146.344 11.7128 145.487 11.2765C144.643 10.8402 143.685 10.6221 142.61 10.6221C141.495 10.6221 140.509 10.8466 139.652 11.2957C138.795 11.7449 138.128 12.3865 137.652 13.2205C137.176 14.0546 136.938 15.0234 136.938 16.127C136.938 17.2177 137.176 18.1801 137.652 19.0141C138.142 19.8482 138.815 20.4962 139.672 20.9582C140.543 21.4073 141.522 21.6319 142.61 21.6319C143.957 21.6319 145.092 21.3046 146.017 20.6502C146.623 20.2129 147.101 19.6983 147.45 19.1066C147.725 18.6404 147.342 18.1095 146.8 18.1095H145.298C145 18.1095 144.736 18.2826 144.553 18.5175C144.094 19.1052 143.426 19.3991 142.549 19.3991C141.814 19.3991 141.195 19.181 140.692 18.7447C140.189 18.3084 139.903 17.7053 139.835 16.9354H147.427C147.815 16.9354 148.151 16.6564 148.171 16.2688ZM144.426 13.4707C144.943 13.8814 145.208 14.4331 145.222 15.1261H139.856C139.964 14.4075 140.257 13.8493 140.733 13.4515C141.223 13.0409 141.821 12.8356 142.528 12.8356C143.276 12.8356 143.909 13.0473 144.426 13.4707ZM153.121 12.4506C153.488 11.886 153.964 11.4433 154.549 11.1225C154.931 10.9181 155.345 10.7788 155.793 10.7046C156.229 10.6324 156.59 10.9995 156.59 11.4413V12.7158C156.59 13.1327 156.252 13.4707 155.835 13.4707C154.937 13.4707 154.257 13.6696 153.794 14.0674C153.346 14.4652 153.121 15.1581 153.121 16.1462V20.6586C153.121 21.1004 152.763 21.4586 152.321 21.4586H151.065C150.623 21.4586 150.265 21.1004 150.265 20.6586V11.5953C150.265 11.1535 150.623 10.7953 151.065 10.7953H152.321C152.763 10.7953 153.121 11.1535 153.121 11.5953V12.4506ZM57.9241 18.1672V13.0087H59.6541C60.096 13.0087 60.4541 12.6506 60.4541 12.2087V11.5952C60.4541 11.1534 60.096 10.7952 59.6541 10.7952H57.9241V8.95826C57.9241 8.51644 57.5659 8.15826 57.1241 8.15826H55.8474C55.4056 8.15826 55.0474 8.51644 55.0474 8.95826V10.7952V13.0087V18.1479C55.0474 20.355 56.2511 21.4586 58.6586 21.4586H59.6541C60.096 21.4586 60.4541 21.1004 60.4541 20.6586V19.9873C60.4541 19.5455 60.096 19.1873 59.6541 19.1873H59.1278C58.6927 19.1873 58.3798 19.1103 58.1893 18.9563C58.0125 18.7895 57.9241 18.5265 57.9241 18.1672Z" fill="#14253F"/>
<g clip-path="url(#clip1)">
<path d="M8.07305 10.2469L14.6555 16.8293C16.5032 18.677 16.5032 21.5641 14.6555 23.4118C12.8078 25.2595 9.92076 25.2595 8.07305 23.4118L1.49058 16.8293C-0.241651 14.9816 -0.241651 11.9791 1.49058 10.2469C3.33829 8.39916 6.22534 8.39916 8.07305 10.2469Z" fill="#00DEFF"/>
<path d="M26.892 11.1706L14.6509 23.4117C12.8032 25.2594 9.91611 25.2594 8.0684 23.4117C6.22069 21.564 6.22069 18.677 8.0684 16.8293L20.3095 4.58818C22.1572 2.74046 25.0442 2.74046 26.892 4.58818C28.6242 6.43589 28.6242 9.32293 26.892 11.1706Z" fill="#0094FF"/>
<path fill-rule="evenodd" clip-rule="evenodd" d="M7.94586 23.2848C6.22163 21.434 6.26248 18.6352 8.0684 16.8293L11.3618 13.5359L14.6553 16.8294C16.4608 18.6348 16.5021 21.4326 14.7792 23.2835L14.6509 23.4118C13.715 24.3477 12.5124 24.8096 11.3133 24.7973C10.1466 24.7843 8.9835 24.3225 8.07286 23.4118L7.94586 23.2848Z" fill="#5EF7FF"/>
</g>
</g>
<defs>
<clipPath id="clip0">
<rect width="157" height="28" fill="white" transform="translate(0.191406)"/>
</clipPath>
<clipPath id="clip1">
<rect width="28" height="28" fill="white" transform="translate(0.191406)"/>
</clipPath>
</defs>
</svg>
