<svg width="70" height="55" viewBox="0 0 70 55" fill="none" xmlns="http://www.w3.org/2000/svg">
<path d="M19.7042 17.9413L36.1604 34.706C40.7797 39.4118 40.7797 46.7648 36.1604 51.4706C31.5411 56.1765 24.3235 56.1765 19.7042 51.4706L3.24794 34.706C-1.08265 30.0001 -1.08265 22.353 3.24794 17.9413C7.86723 13.2354 15.0849 13.2354 19.7042 17.9413Z" fill="white"/>
<path d="M66.7521 20.2941L36.1493 51.4705C31.53 56.1764 24.3123 56.1764 19.693 51.4705C15.0738 46.7646 15.0738 39.4117 19.693 34.7058L50.2959 3.52941C54.9152 -1.17647 62.1328 -1.17647 66.7521 3.52941C71.0827 8.23528 71.0827 15.5882 66.7521 20.2941Z" fill="white"/>
<path fill-rule="evenodd" clip-rule="evenodd" d="M27.9264 26.3178L36.1602 34.7059C40.6738 39.3042 40.777 46.4298 36.4698 51.1437L36.149 51.4704C33.8045 53.8589 30.7905 55.0351 27.7867 54.999C24.8761 54.9611 21.9758 53.785 19.7039 51.4706L19.3869 51.1476C15.0759 46.4338 15.1778 39.3053 19.6928 34.7057L27.9264 26.3178Z" fill="white"/>
</svg>
